<svg xmlns="http://www.w3.org/2000/svg" viewBox="0 0 151.83 52.48"><defs><style>.cls-1{font-size:34px;font-family:Billabong;}.cls-2{letter-spacing:-0.04em;}.cls-3{letter-spacing:0em;}.cls-4{stroke:#000;stroke-miterlimit:10;}.cls-5{fill:#0a0a08;}</style></defs><title>Asset 4</title><g id="Layer_2" data-name="Layer 2"><g id="Layer_1-2" data-name="Layer 1"><text class="cls-1" transform="translate(44.74 27.93)">In<tspan class="cls-2" x="25.33" y="0">s</tspan><tspan class="cls-3" x="33.08" y="0">taClone</tspan></text><line class="cls-4" x1="33.5" y1="4.41" x2="33.5" y2="29.41"/><path class="cls-5" d="M12.5,6.66c3.34,0,3.73,0,5.05.07a7,7,0,0,1,2.32.43,3.87,3.87,0,0,1,1.44.94,3.73,3.73,0,0,1,.93,1.44,6.55,6.55,0,0,1,.43,2.32c.06,1.32.08,1.71.08,5.05s0,3.73-.08,5.05a6.55,6.55,0,0,1-.43,2.32,3.81,3.81,0,0,1-.93,1.44,3.73,3.73,0,0,1-1.44.93,6.79,6.79,0,0,1-2.32.43c-1.32.06-1.71.08-5.05.08s-3.73,0-5-.08a6.79,6.79,0,0,1-2.32-.43,3.73,3.73,0,0,1-1.44-.93,3.81,3.81,0,0,1-.93-1.44A6.55,6.55,0,0,1,2.33,22c-.07-1.32-.08-1.71-.08-5.05s0-3.73.08-5.05a6.55,6.55,0,0,1,.43-2.32A3.73,3.73,0,0,1,3.69,8.1a3.87,3.87,0,0,1,1.44-.94,7,7,0,0,1,2.32-.43c1.32-.06,1.71-.07,5.05-.07m0-2.25c-3.39,0-3.82,0-5.15.07a9.44,9.44,0,0,0-3,.59A5.9,5.9,0,0,0,2.1,6.51,6,6,0,0,0,.66,8.72a9.15,9.15,0,0,0-.58,3C0,13.09,0,13.51,0,16.91s0,3.82.08,5.15a9.2,9.2,0,0,0,.58,3A6,6,0,0,0,2.1,27.31a6,6,0,0,0,2.21,1.44,9.2,9.2,0,0,0,3,.58c1.33.06,1.76.08,5.15.08s3.82,0,5.15-.08a9.2,9.2,0,0,0,3-.58,6.39,6.39,0,0,0,3.65-3.65,9.2,9.2,0,0,0,.58-3c.07-1.33.08-1.76.08-5.15s0-3.82-.08-5.15a9.15,9.15,0,0,0-.58-3A6,6,0,0,0,22.9,6.51a5.9,5.9,0,0,0-2.21-1.44,9.44,9.44,0,0,0-3-.59C16.32,4.42,15.89,4.41,12.5,4.41Zm0,6.08a6.42,6.42,0,1,0,6.42,6.42A6.41,6.41,0,0,0,12.5,10.49Zm0,10.59a4.17,4.17,0,1,1,4.17-4.17A4.17,4.17,0,0,1,12.5,21.08Z"/><path class="cls-5" d="M21.67,22.24a1.5,1.5,0,1,1-1.5-1.5A1.5,1.5,0,0,1,21.67,22.24Z"/></g></g></svg>